<svg width="40" height="40" viewBox="0 0 40 40" fill="none" xmlns="http://www.w3.org/2000/svg">
<path fill-rule="evenodd" clip-rule="evenodd" d="M25.126 10.695L29.1083 7.28279C29.8683 6.63158 30.9378 6.48234 31.8471 6.90063C32.7563 7.31891 33.3389 8.2282 33.3389 9.22905V21.6673C33.3389 29.0342 27.3669 35.0062 20 35.0062V35.0062C12.6332 35.0062 6.66113 29.0342 6.66113 21.6673V9.22905C6.66113 8.2282 7.24372 7.31891 8.15297 6.90063C9.06221 6.48234 10.1318 6.63158 10.8918 7.28279L14.874 10.695C18.1908 9.52232 21.8093 9.52232 25.126 10.695Z" stroke="#002A48" stroke-width="1.5" stroke-linecap="round" stroke-linejoin="round"/>
<path d="M17.0821 17.9164C17.0818 18.1464 16.8951 18.3328 16.665 18.3327C16.435 18.3326 16.2485 18.1461 16.2484 17.916C16.2483 17.6859 16.4346 17.4993 16.6647 17.499C16.7754 17.4989 16.8817 17.5428 16.96 17.6211C17.0383 17.6994 17.0822 17.8056 17.0821 17.9164" stroke="#002A48" stroke-width="1.5" stroke-linecap="round" stroke-linejoin="round"/>
<path d="M23.7515 17.9164C23.7512 18.1464 23.5646 18.3328 23.3345 18.3327C23.1044 18.3326 22.9179 18.1461 22.9178 17.916C22.9177 17.6859 23.104 17.4993 23.3341 17.499C23.4449 17.4989 23.5511 17.5428 23.6294 17.6211C23.7077 17.6994 23.7516 17.8056 23.7515 17.9164" stroke="#002A48" stroke-width="1.5" stroke-linecap="round" stroke-linejoin="round"/>
<path fill-rule="evenodd" clip-rule="evenodd" d="M20.0001 24.1684V24.1684C19.5396 24.1684 19.1664 23.7951 19.1664 23.3347V23.3347C19.1664 23.1812 19.2908 23.0568 19.4443 23.0568H20.5559C20.7093 23.0568 20.8337 23.1812 20.8337 23.3347V23.3347C20.8337 23.7951 20.4605 24.1684 20.0001 24.1684Z" stroke="#002A48" stroke-width="1.5" stroke-linecap="round" stroke-linejoin="round"/>
<path d="M16.3538 28.545C16.7539 28.9462 17.2975 29.1713 17.8641 29.1706V29.1706C19.0437 29.1706 20 28.2143 20 27.0347C20 27.8986 20.5204 28.6774 21.3185 29.008C22.1166 29.3385 23.0353 29.1558 23.6462 28.5449" stroke="#002A48" stroke-width="1.5" stroke-linecap="round" stroke-linejoin="round"/>
<path d="M19.9999 24.1685V27.0347" stroke="#002A48" stroke-width="1.5" stroke-linecap="round" stroke-linejoin="round"/>
<path d="M28.3369 21.345L35.0064 20.2335" stroke="#002A48" stroke-width="1.5" stroke-linecap="round" stroke-linejoin="round"/>
<path d="M35.0064 26.6695L28.3369 25.5579" stroke="#002A48" stroke-width="1.5" stroke-linecap="round" stroke-linejoin="round"/>
<path d="M11.6633 21.345L4.9939 20.2335" stroke="#002A48" stroke-width="1.5" stroke-linecap="round" stroke-linejoin="round"/>
<path d="M4.9939 26.6695L11.6633 25.5579" stroke="#002A48" stroke-width="1.5" stroke-linecap="round" stroke-linejoin="round"/>
</svg>
