<svg width="40" height="40" viewBox="0 0 40 40" fill="none" xmlns="http://www.w3.org/2000/svg">
<path d="M13.4136 29.7393L11.6617 34.9949" stroke="#002A48" stroke-width="1.5" stroke-linecap="round" stroke-linejoin="round"/>
<path d="M26.5765 29.7393L28.3284 34.9949" stroke="#002A48" stroke-width="1.5" stroke-linecap="round" stroke-linejoin="round"/>
<path d="M18.3284 21.6617H21.6617" stroke="#002A48" stroke-width="1.5" stroke-linecap="round" stroke-linejoin="round"/>
<path d="M13.3282 8.32823C14.7673 7.23996 16.524 6.6544 18.3282 6.66156H21.6616C23.4658 6.6544 25.2225 7.23996 26.6616 8.32823" stroke="#002A48" stroke-width="1.5" stroke-linecap="round" stroke-linejoin="round"/>
<path d="M10.1616 13.3282C10.0468 13.8763 9.99094 14.435 9.99495 14.9949V24.9949C9.99495 27.7563 12.2335 29.9949 14.995 29.9949H16.6616C18.5026 29.9949 19.995 28.5025 19.995 26.6616C19.995 28.5025 21.4873 29.9949 23.3283 29.9949H24.995C27.7564 29.9949 29.995 27.7563 29.995 24.9949V14.9949C29.999 14.435 29.9431 13.8763 29.8283 13.3282" stroke="#002A48" stroke-width="1.5" stroke-linecap="round" stroke-linejoin="round"/>
<path fill-rule="evenodd" clip-rule="evenodd" d="M8.32841 4.995H11.6617C12.5822 4.995 13.3284 5.74119 13.3284 6.66166V9.995C13.3284 11.8359 11.836 13.3283 9.99508 13.3283V13.3283C8.15413 13.3283 6.66174 11.8359 6.66174 9.995V6.66166C6.66174 5.74119 7.40794 4.995 8.32841 4.995Z" stroke="#002A48" stroke-width="1.5" stroke-linecap="round" stroke-linejoin="round"/>
<path fill-rule="evenodd" clip-rule="evenodd" d="M28.3284 4.995H31.6617C32.5822 4.995 33.3284 5.74119 33.3284 6.66166V9.995C33.3284 11.8359 31.836 13.3283 29.9951 13.3283V13.3283C28.1541 13.3283 26.6617 11.8359 26.6617 9.995V6.66166C26.6617 5.74119 27.4079 4.995 28.3284 4.995Z" stroke="#002A48" stroke-width="1.5" stroke-linecap="round" stroke-linejoin="round"/>
<path d="M23.3283 29.9949V31.6615C23.3283 33.0423 22.209 34.1615 20.8283 34.1615H19.1616C17.7809 34.1615 16.6616 33.0423 16.6616 31.6615V29.9949" stroke="#002A48" stroke-width="1.5" stroke-linecap="round" stroke-linejoin="round"/>
<path d="M19.995 21.6616V26.6616" stroke="#002A48" stroke-width="1.5" stroke-linecap="round" stroke-linejoin="round"/>
<path d="M23.7456 15.8289C23.7453 16.0588 23.5587 16.2451 23.3288 16.245C23.0988 16.2449 22.9124 16.0585 22.9123 15.8285C22.9122 15.5985 23.0984 15.412 23.3284 15.4117C23.4391 15.4115 23.5453 15.4554 23.6236 15.5337C23.7018 15.612 23.7457 15.7182 23.7456 15.8289" stroke="#002A48" stroke-width="1.5" stroke-linecap="round" stroke-linejoin="round"/>
<path d="M17.0789 15.8289C17.0786 16.0588 16.892 16.2451 16.662 16.245C16.432 16.2449 16.2456 16.0585 16.2455 15.8285C16.2454 15.5985 16.4317 15.412 16.6617 15.4117C16.7723 15.4115 16.8785 15.4554 16.9568 15.5337C17.0351 15.612 17.079 15.7182 17.0789 15.8289" stroke="#002A48" stroke-width="1.5" stroke-linecap="round" stroke-linejoin="round"/>
</svg>
