<svg width="127" height="30" viewBox="0 0 127 30" fill="none" xmlns="http://www.w3.org/2000/svg">
<path d="M7.65269 26.3198C6.69217 26.7511 4.83448 27.4373 3.88593 26.6154C3.22671 26.0442 3.26337 24.6041 3.31026 23.8169C3.45917 21.3249 4.87563 18.8671 6.37316 16.9356C8.16351 14.627 10.843 12.8653 13.763 12.7668C15.9796 12.692 18.1633 13.5816 19.8941 14.9684C21.6248 16.3552 22.9325 18.2119 23.9369 20.1891C24.427 21.1538 24.8578 22.1852 24.8743 23.2672C24.8905 24.3492 24.4121 25.4965 23.461 26.0126C22.6985 26.4264 21.7567 26.3777 20.9316 26.1096C20.1066 25.8417 19.363 25.3753 18.5991 24.964C17.1898 24.2055 15.6262 23.6149 14.0289 23.7119C11.7195 23.8526 9.76355 25.372 7.65269 26.3198Z" fill="#FCEED5"/>
<path d="M5.46221 14.1433C5.74581 16.4806 3.97017 17.7521 2.15663 15.995C1.04446 14.9175 0.178717 13.0007 0.0235771 11.4595C-0.0544918 10.6828 0.0405378 9.80508 0.62618 9.28903C1.18738 8.79442 2.06484 8.79168 2.73454 9.12516C3.40424 9.45863 3.89535 10.068 4.2812 10.709C4.90999 11.7538 5.3153 12.9326 5.46221 14.1433Z" fill="#FCEED5"/>
<path d="M12.1669 7.84918C12.5405 9.42228 12.0968 11.8502 9.97145 11.6716C7.42735 11.4578 7.13179 7.06775 7.4069 5.25869C7.50991 4.58026 7.77355 3.82277 8.41332 3.57485C8.8538 3.40399 9.36686 3.53519 9.75571 3.80381C10.1443 4.07219 10.4311 4.46154 10.6988 4.85089C11.332 5.7735 11.9082 6.76021 12.1669 7.84918Z" fill="#FCEED5"/>
<path d="M21.0138 6.82031C21.0367 5.77798 20.8043 4.68376 20.1199 3.89734C19.4354 3.11091 18.2257 2.73104 17.3019 3.21417C16.3429 3.71551 15.9899 4.89877 15.8318 5.96904C15.6168 7.42241 15.2699 10.0932 16.3314 11.3176C16.9958 12.0841 17.9923 11.6853 18.7543 11.2426C20.2491 10.3736 20.9776 8.47647 21.0138 6.82031Z" fill="#FCEED5"/>
<path d="M27.2741 16.3564C25.7773 17.7681 22.7179 17.3307 22.988 14.8956C23.1706 13.2484 24.2918 11.5513 25.3079 10.2875C25.9277 9.51678 26.8346 8.7725 27.8001 8.98726C28.5658 9.15761 29.0926 9.91336 29.2266 10.6863C29.3603 11.4593 29.1774 12.2494 28.9697 13.0059C28.6337 14.2286 28.1967 15.4864 27.2741 16.3564Z" fill="#FCEED5"/>
<path d="M49.2122 12.48C49.2122 13.2933 49.0256 14.04 48.6522 14.72C48.2789 15.3867 47.7056 15.9267 46.9322 16.34C46.1589 16.7533 45.1989 16.96 44.0522 16.96H41.9322V22H38.5122V7.96H44.0522C45.1722 7.96 46.1189 8.15333 46.8922 8.54C47.6656 8.92667 48.2456 9.46 48.6322 10.14C49.0189 10.82 49.2122 11.6 49.2122 12.48ZM43.7922 14.24C44.4456 14.24 44.9322 14.0867 45.2522 13.78C45.5722 13.4733 45.7322 13.04 45.7322 12.48C45.7322 11.92 45.5722 11.4867 45.2522 11.18C44.9322 10.8733 44.4456 10.72 43.7922 10.72H41.9322V14.24H43.7922ZM61.5127 16.24C61.5127 16.56 61.4927 16.8933 61.4527 17.24H53.7127C53.766 17.9333 53.986 18.4667 54.3727 18.84C54.7727 19.2 55.2594 19.38 55.8327 19.38C56.686 19.38 57.2794 19.02 57.6127 18.3H61.2527C61.066 19.0333 60.726 19.6933 60.2327 20.28C59.7527 20.8667 59.146 21.3267 58.4127 21.66C57.6794 21.9933 56.8594 22.16 55.9527 22.16C54.8594 22.16 53.886 21.9267 53.0327 21.46C52.1794 20.9933 51.5127 20.3267 51.0327 19.46C50.5527 18.5933 50.3127 17.58 50.3127 16.42C50.3127 15.26 50.546 14.2467 51.0127 13.38C51.4927 12.5133 52.1594 11.8467 53.0127 11.38C53.866 10.9133 54.846 10.68 55.9527 10.68C57.0327 10.68 57.9927 10.9067 58.8327 11.36C59.6727 11.8133 60.326 12.46 60.7927 13.3C61.2727 14.14 61.5127 15.12 61.5127 16.24ZM58.0127 15.34C58.0127 14.7533 57.8127 14.2867 57.4127 13.94C57.0127 13.5933 56.5127 13.42 55.9127 13.42C55.3394 13.42 54.8527 13.5867 54.4527 13.92C54.066 14.2533 53.826 14.7267 53.7327 15.34H58.0127ZM69.5369 19.1V22H67.7969C66.5569 22 65.5902 21.7 64.8969 21.1C64.2036 20.4867 63.8569 19.4933 63.8569 18.12V13.68H62.4969V10.84H63.8569V8.12H67.2769V10.84H69.5169V13.68H67.2769V18.16C67.2769 18.4933 67.3569 18.7333 67.5169 18.88C67.6769 19.0267 67.9436 19.1 68.3169 19.1H69.5369ZM80.7602 22.14C79.7335 22.14 78.8135 21.9733 78.0002 21.64C77.1869 21.3067 76.5335 20.8133 76.0402 20.16C75.5602 19.5067 75.3069 18.72 75.2802 17.8H78.9202C78.9735 18.32 79.1535 18.72 79.4602 19C79.7669 19.2667 80.1669 19.4 80.6602 19.4C81.1669 19.4 81.5669 19.2867 81.8602 19.06C82.1535 18.82 82.3002 18.4933 82.3002 18.08C82.3002 17.7333 82.1802 17.4467 81.9402 17.22C81.7135 16.9933 81.4269 16.8067 81.0802 16.66C80.7469 16.5133 80.2669 16.3467 79.6402 16.16C78.7335 15.88 77.9935 15.6 77.4202 15.32C76.8469 15.04 76.3535 14.6267 75.9402 14.08C75.5269 13.5333 75.3202 12.82 75.3202 11.94C75.3202 10.6333 75.7935 9.61333 76.7402 8.88C77.6869 8.13333 78.9202 7.76 80.4402 7.76C81.9869 7.76 83.2335 8.13333 84.1802 8.88C85.1269 9.61333 85.6335 10.64 85.7002 11.96H82.0002C81.9735 11.5067 81.8069 11.1533 81.5002 10.9C81.1935 10.6333 80.8002 10.5 80.3202 10.5C79.9069 10.5 79.5735 10.6133 79.3202 10.84C79.0669 11.0533 78.9402 11.3667 78.9402 11.78C78.9402 12.2333 79.1535 12.5867 79.5802 12.84C80.0069 13.0933 80.6735 13.3667 81.5802 13.66C82.4869 13.9667 83.2202 14.26 83.7802 14.54C84.3535 14.82 84.8469 15.2267 85.2602 15.76C85.6735 16.2933 85.8802 16.98 85.8802 17.82C85.8802 18.62 85.6735 19.3467 85.2602 20C84.8602 20.6533 84.2735 21.1733 83.5002 21.56C82.7269 21.9467 81.8135 22.14 80.7602 22.14ZM94.8449 10.72C96.1249 10.72 97.1515 11.1467 97.9249 12C98.6982 12.84 99.0849 14 99.0849 15.48V22H95.6849V15.94C95.6849 15.1933 95.4915 14.6133 95.1049 14.2C94.7182 13.7867 94.1982 13.58 93.5449 13.58C92.8915 13.58 92.3715 13.7867 91.9849 14.2C91.5982 14.6133 91.4049 15.1933 91.4049 15.94V22H87.9849V7.2H91.4049V12.34C91.7515 11.8467 92.2249 11.4533 92.8249 11.16C93.4249 10.8667 94.0982 10.72 94.8449 10.72ZM106.541 22.16C105.448 22.16 104.461 21.9267 103.581 21.46C102.715 20.9933 102.028 20.3267 101.521 19.46C101.028 18.5933 100.781 17.58 100.781 16.42C100.781 15.2733 101.035 14.2667 101.541 13.4C102.048 12.52 102.741 11.8467 103.621 11.38C104.501 10.9133 105.488 10.68 106.581 10.68C107.675 10.68 108.661 10.9133 109.541 11.38C110.421 11.8467 111.115 12.52 111.621 13.4C112.128 14.2667 112.381 15.2733 112.381 16.42C112.381 17.5667 112.121 18.58 111.601 19.46C111.095 20.3267 110.395 20.9933 109.501 21.46C108.621 21.9267 107.635 22.16 106.541 22.16ZM106.541 19.2C107.195 19.2 107.748 18.96 108.201 18.48C108.668 18 108.901 17.3133 108.901 16.42C108.901 15.5267 108.675 14.84 108.221 14.36C107.781 13.88 107.235 13.64 106.581 13.64C105.915 13.64 105.361 13.88 104.921 14.36C104.481 14.8267 104.261 15.5133 104.261 16.42C104.261 17.3133 104.475 18 104.901 18.48C105.341 18.96 105.888 19.2 106.541 19.2ZM117.616 12.42C117.949 11.9 118.409 11.48 118.996 11.16C119.582 10.84 120.269 10.68 121.056 10.68C121.976 10.68 122.809 10.9133 123.556 11.38C124.302 11.8467 124.889 12.5133 125.316 13.38C125.756 14.2467 125.976 15.2533 125.976 16.4C125.976 17.5467 125.756 18.56 125.316 19.44C124.889 20.3067 124.302 20.98 123.556 21.46C122.809 21.9267 121.976 22.16 121.056 22.16C120.282 22.16 119.596 22 118.996 21.68C118.409 21.36 117.949 20.9467 117.616 20.44V27.32H114.196V10.84H117.616V12.42ZM122.496 16.4C122.496 15.5467 122.256 14.88 121.776 14.4C121.309 13.9067 120.729 13.66 120.036 13.66C119.356 13.66 118.776 13.9067 118.296 14.4C117.829 14.8933 117.596 15.5667 117.596 16.42C117.596 17.2733 117.829 17.9467 118.296 18.44C118.776 18.9333 119.356 19.18 120.036 19.18C120.716 19.18 121.296 18.9333 121.776 18.44C122.256 17.9333 122.496 17.2533 122.496 16.4Z" fill="#FCEED5"/>
</svg>
