<svg width="40" height="40" viewBox="0 0 40 40" fill="none" xmlns="http://www.w3.org/2000/svg">
<path d="M33.3388 17.7007V33.3389" stroke="#002A48" stroke-width="1.5" stroke-linecap="round" stroke-linejoin="round"/>
<path d="M8.3285 33.3389H3.32642" stroke="#002A48" stroke-width="1.5" stroke-linecap="round" stroke-linejoin="round"/>
<path fill-rule="evenodd" clip-rule="evenodd" d="M20.0001 28.3368V28.3368C22.7627 28.3368 25.0022 30.5763 25.0022 33.3389V33.3389C25.0022 34.2597 24.2557 35.0062 23.3349 35.0062H16.6654C15.7445 35.0062 14.998 34.2597 14.998 33.3389V33.3389C14.998 30.5763 17.2376 28.3368 20.0001 28.3368Z" stroke="#002A48" stroke-width="1.5" stroke-linecap="round" stroke-linejoin="round"/>
<path d="M6.66107 17.6974V33.3389" stroke="#002A48" stroke-width="1.5" stroke-linecap="round" stroke-linejoin="round"/>
<path d="M31.2546 18.3327V18.3327C33.3266 18.3327 35.0062 16.653 35.0062 14.5811V14.3693C35.0062 13.6896 34.8213 13.0227 34.471 12.4402L30.9695 6.61278C30.3681 5.61038 29.2856 4.9961 28.1167 4.99377H11.8832C10.7126 4.99377 9.62771 5.60758 9.0248 6.611L5.52224 12.4402C5.17425 13.0234 4.99154 13.6902 4.99367 14.3693V14.5811C4.99367 16.653 6.67332 18.3327 8.74525 18.3327V18.3327" stroke="#002A48" stroke-width="1.5" stroke-linecap="round" stroke-linejoin="round"/>
<path d="M36.6737 33.3389H31.6716" stroke="#002A48" stroke-width="1.5" stroke-linecap="round" stroke-linejoin="round"/>
<path d="M31.2547 18.3327C29.5945 18.3326 28.1316 17.2418 27.6578 15.6506C27.6423 15.5776 27.5778 15.5254 27.5032 15.5254C27.4285 15.5254 27.364 15.5776 27.3485 15.6506C26.8748 17.2418 25.4118 18.3327 23.7516 18.3327C22.0914 18.3327 20.6284 17.2418 20.1547 15.6506C20.1392 15.5776 20.0747 15.5254 20 15.5254C19.9254 15.5254 19.8609 15.5776 19.8454 15.6506C19.3717 17.2418 17.9087 18.3327 16.2485 18.3327C14.5883 18.3327 13.1253 17.2418 12.6516 15.6506C12.6361 15.5776 12.5716 15.5254 12.4969 15.5254C12.4223 15.5254 12.3578 15.5776 12.3423 15.6506C11.8685 17.2418 10.4056 18.3326 8.74536 18.3327" stroke="#002A48" stroke-width="1.5" stroke-linecap="round" stroke-linejoin="round"/>
<path d="M20.4175 23.3353C20.4172 23.5654 20.2306 23.7517 20.0005 23.7516C19.7704 23.7515 19.5839 23.565 19.5838 23.335C19.5837 23.1049 19.7701 22.9182 20.0001 22.9179C20.1109 22.9178 20.2171 22.9617 20.2954 23.04C20.3737 23.1183 20.4177 23.2246 20.4175 23.3353" stroke="#002A48" stroke-width="1.5" stroke-linecap="round" stroke-linejoin="round"/>
<path d="M25.4195 25.0027C25.4192 25.2327 25.2325 25.4191 25.0024 25.419C24.7724 25.4189 24.5859 25.2324 24.5858 25.0023C24.5857 24.7722 24.772 24.5856 25.0021 24.5853C25.1128 24.5852 25.2191 24.6291 25.2974 24.7074C25.3757 24.7857 25.4196 24.8919 25.4195 25.0027" stroke="#002A48" stroke-width="1.5" stroke-linecap="round" stroke-linejoin="round"/>
<path d="M15.4153 25.0027C15.415 25.2327 15.2284 25.4191 14.9983 25.419C14.7682 25.4189 14.5817 25.2324 14.5816 25.0023C14.5815 24.7722 14.7679 24.5856 14.9979 24.5853C15.1087 24.5852 15.2149 24.6291 15.2932 24.7074C15.3715 24.7857 15.4155 24.8919 15.4153 25.0027" stroke="#002A48" stroke-width="1.5" stroke-linecap="round" stroke-linejoin="round"/>
</svg>
