<svg width="24" height="24" viewBox="0 0 24 24" fill="none" xmlns="http://www.w3.org/2000/svg">
<path d="M19.9942 8.00235C19.8992 7.65018 19.7138 7.32902 19.4561 7.07082C19.1985 6.81262 18.8778 6.6264 18.5258 6.53068C17.2208 6.17235 12 6.16651 12 6.16651C12 6.16651 6.78003 6.16068 5.4742 6.50318C5.12247 6.6033 4.80238 6.79216 4.54467 7.05162C4.28695 7.31109 4.10027 7.63245 4.00253 7.98485C3.65836 9.28985 3.65503 11.9965 3.65503 11.9965C3.65503 11.9965 3.6517 14.7165 3.99336 16.0082C4.18503 16.7224 4.74753 17.2865 5.46253 17.479C6.78086 17.8374 11.9875 17.8432 11.9875 17.8432C11.9875 17.8432 17.2083 17.849 18.5133 17.5074C18.8654 17.4118 19.1865 17.226 19.4447 16.9683C19.703 16.7107 19.8895 16.3901 19.9858 16.0382C20.3308 14.734 20.3333 12.0282 20.3333 12.0282C20.3333 12.0282 20.35 9.30735 19.9942 8.00235ZM10.33 14.504L10.3342 9.50401L14.6733 12.0082L10.33 14.504Z" fill="#FCEED5"/>
</svg>
